solid OpenSCAD_Model
  facet normal 0 -1 0
    outer loop
      vertex 9 0.141 -1.6
      vertex 0.141 0.141 -2.75
      vertex 19.121 0.141 -2.75
    endloop
  endfacet
  facet normal 0 -1 0
    outer loop
      vertex 9 0.141 -1.6
      vertex 8.38771 0.141 -1.47821
      vertex 0.141 0.141 -2.75
    endloop
  endfacet
  facet normal 0 -1 0
    outer loop
      vertex 0.141 0.141 2.75
      vertex 0.141 0.141 -2.75
      vertex 7.4 0.141 -3.55271e-016
    endloop
  endfacet
  facet normal 0 -1 0
    outer loop
      vertex 10.4782 0.141 -0.612293
      vertex 10.1314 0.141 -1.13137
      vertex 19.121 0.141 -2.75
    endloop
  endfacet
  facet normal 0 -1 0
    outer loop
      vertex 7.86863 0.141 1.13137
      vertex 0.141 0.141 2.75
      vertex 7.52179 0.141 0.612293
    endloop
  endfacet
  facet normal 0 -1 0
    outer loop
      vertex 8.38771 0.141 1.47821
      vertex 0.141 0.141 2.75
      vertex 7.86863 0.141 1.13137
    endloop
  endfacet
  facet normal 0 -1 0
    outer loop
      vertex 9 0.141 1.6
      vertex 0.141 0.141 2.75
      vertex 8.38771 0.141 1.47821
    endloop
  endfacet
  facet normal 0 -1 0
    outer loop
      vertex 9.61229 0.141 1.47821
      vertex 10.1314 0.141 1.13137
      vertex 19.121 0.141 2.75
    endloop
  endfacet
  facet normal 0 -1 0
    outer loop
      vertex 19.121 0.141 2.75
      vertex 0.141 0.141 2.75
      vertex 9 0.141 1.6
    endloop
  endfacet
  facet normal 0 -1 0
    outer loop
      vertex 10.1314 0.141 1.13137
      vertex 10.4782 0.141 0.612293
      vertex 19.121 0.141 2.75
    endloop
  endfacet
  facet normal 0 -1 0
    outer loop
      vertex 10.6 0.141 3.55271e-016
      vertex 10.4782 0.141 -0.612293
      vertex 19.121 0.141 -2.75
    endloop
  endfacet
  facet normal 0 -1 0
    outer loop
      vertex 19.121 0.141 2.75
      vertex 10.4782 0.141 0.612293
      vertex 19.121 0.141 -2.75
    endloop
  endfacet
  facet normal 0 -1 0
    outer loop
      vertex 10.4782 0.141 0.612293
      vertex 10.6 0.141 3.55271e-016
      vertex 19.121 0.141 -2.75
    endloop
  endfacet
  facet normal 0 -1 0
    outer loop
      vertex 9 0.141 1.6
      vertex 9.61229 0.141 1.47821
      vertex 19.121 0.141 2.75
    endloop
  endfacet
  facet normal 0 -1 0
    outer loop
      vertex 10.1314 0.141 -1.13137
      vertex 9.61229 0.141 -1.47821
      vertex 19.121 0.141 -2.75
    endloop
  endfacet
  facet normal 0 -1 0
    outer loop
      vertex 9.61229 0.141 -1.47821
      vertex 9 0.141 -1.6
      vertex 19.121 0.141 -2.75
    endloop
  endfacet
  facet normal 0 -1 0
    outer loop
      vertex 8.38771 0.141 -1.47821
      vertex 7.86863 0.141 -1.13137
      vertex 0.141 0.141 -2.75
    endloop
  endfacet
  facet normal 0 -1 0
    outer loop
      vertex 7.52179 0.141 -0.612293
      vertex 0.141 0.141 -2.75
      vertex 7.86863 0.141 -1.13137
    endloop
  endfacet
  facet normal 0 -1 0
    outer loop
      vertex 7.4 0.141 -3.55271e-016
      vertex 0.141 0.141 -2.75
      vertex 7.52179 0.141 -0.612293
    endloop
  endfacet
  facet normal 0 -1 0
    outer loop
      vertex 7.4 0.141 -3.55271e-016
      vertex 7.52179 0.141 0.612293
      vertex 0.141 0.141 2.75
    endloop
  endfacet
  facet normal 0 0 -1
    outer loop
      vertex 14.782 37.603 -2.75
      vertex 0.141 49.853 -2.75
      vertex 15.782 49.853 -2.75
    endloop
  endfacet
  facet normal 0 0 -1
    outer loop
      vertex 17.282 34.853 -2.75
      vertex 15.782 49.853 -2.75
      vertex 16.548 49.7 -2.75
    endloop
  endfacet
  facet normal 0 0 -1
    outer loop
      vertex 17.636 34.999 -2.75
      vertex 16.548 49.7 -2.75
      vertex 17.196 49.267 -2.75
    endloop
  endfacet
  facet normal 0 0 -1
    outer loop
      vertex 17.782 35.353 -2.75
      vertex 17.196 49.267 -2.75
      vertex 17.63 48.618 -2.75
    endloop
  endfacet
  facet normal 0 0 -1
    outer loop
      vertex 17.636 34.999 -2.75
      vertex 17.196 49.267 -2.75
      vertex 17.782 35.353 -2.75
    endloop
  endfacet
  facet normal 0 0 -1
    outer loop
      vertex 17.282 34.853 -2.75
      vertex 16.548 49.7 -2.75
      vertex 17.636 34.999 -2.75
    endloop
  endfacet
  facet normal 0 0 -1
    outer loop
      vertex 16.726 34.853 -2.75
      vertex 15.782 49.853 -2.75
      vertex 17.282 34.853 -2.75
    endloop
  endfacet
  facet normal 0 0 -1
    outer loop
      vertex 14.782 37.603 -2.75
      vertex 16.726 34.853 -2.75
      vertex 15.823 35.422 -2.75
    endloop
  endfacet
  facet normal 0 0 -1
    outer loop
      vertex 16.192 35.007 -2.75
      vertex 15.823 35.422 -2.75
      vertex 16.726 34.853 -2.75
    endloop
  endfacet
  facet normal 0 0 -1
    outer loop
      vertex 13.782 37.603 -2.75
      vertex 0.141 49.853 -2.75
      vertex 14.782 37.603 -2.75
    endloop
  endfacet
  facet normal 0 0 -1
    outer loop
      vertex 16.726 34.853 -2.75
      vertex 14.782 37.603 -2.75
      vertex 15.782 49.853 -2.75
    endloop
  endfacet
  facet normal 0 0 -1
    outer loop
      vertex 13.782 4.103 -2.75
      vertex 0.141 49.853 -2.75
      vertex 13.782 37.603 -2.75
    endloop
  endfacet
  facet normal 0 0 -1
    outer loop
      vertex 4.5 3.103 -2.75
      vertex 0.141 49.853 -2.75
      vertex 13.782 4.103 -2.75
    endloop
  endfacet
  facet normal 0 0 -1
    outer loop
      vertex 12.782 3.103 -2.75
      vertex 13.489 3.395 -2.75
      vertex 13.171 3.181 -2.75
    endloop
  endfacet
  facet normal 0 0 -1
    outer loop
      vertex 4.136 2.946 -2.75
      vertex 0.141 49.853 -2.75
      vertex 4.5 3.103 -2.75
    endloop
  endfacet
  facet normal 0 0 -1
    outer loop
      vertex 4.02 2.603 -2.75
      vertex 0.141 0.141 -2.75
      vertex 4.136 2.946 -2.75
    endloop
  endfacet
  facet normal 0 0 -1
    outer loop
      vertex 0.141 0.141 -2.75
      vertex 0.141 49.853 -2.75
      vertex 4.136 2.946 -2.75
    endloop
  endfacet
  facet normal 0 0 -1
    outer loop
      vertex 15.032 2.103 -2.75
      vertex 0.141 0.141 -2.75
      vertex 4.5 2.103 -2.75
    endloop
  endfacet
  facet normal 0 0 -1
    outer loop
      vertex 0.141 0.141 -2.75
      vertex 4.02 2.603 -2.75
      vertex 4.143 2.259 -2.75
    endloop
  endfacet
  facet normal 0 0 -1
    outer loop
      vertex 0.141 0.141 -2.75
      vertex 4.143 2.259 -2.75
      vertex 4.5 2.103 -2.75
    endloop
  endfacet
  facet normal 0 0 -1
    outer loop
      vertex 15.032 4.032 -2.75
      vertex 19.121 0.141 -2.75
      vertex 15.032 2.103 -2.75
    endloop
  endfacet
  facet normal 0 0 -1
    outer loop
      vertex 0.141 0.141 -2.75
      vertex 15.032 2.103 -2.75
      vertex 19.121 0.141 -2.75
    endloop
  endfacet
  facet normal 0 0 -1
    outer loop
      vertex 4.5 3.103 -2.75
      vertex 13.782 4.103 -2.75
      vertex 13.704 3.713 -2.75
    endloop
  endfacet
  facet normal 0 0 -1
    outer loop
      vertex 19.434 1.032 -2.75
      vertex 19.121 0.141 -2.75
      vertex 15.438 4.228 -2.75
    endloop
  endfacet
  facet normal 0 0 -1
    outer loop
      vertex 4.5 3.103 -2.75
      vertex 13.704 3.713 -2.75
      vertex 13.489 3.395 -2.75
    endloop
  endfacet
  facet normal 0 0 -1
    outer loop
      vertex 15.032 4.032 -2.75
      vertex 15.174 4.258 -2.75
      vertex 19.121 0.141 -2.75
    endloop
  endfacet
  facet normal 0 0 -1
    outer loop
      vertex 4.5 3.103 -2.75
      vertex 13.489 3.395 -2.75
      vertex 12.782 3.103 -2.75
    endloop
  endfacet
  facet normal 0 0 -1
    outer loop
      vertex 15.174 4.258 -2.75
      vertex 15.438 4.228 -2.75
      vertex 19.121 0.141 -2.75
    endloop
  endfacet
  facet normal 0 0 -1
    outer loop
      vertex 19.121 0.141 -2.75
      vertex 19.434 1.032 -2.75
      vertex 19.602 0.779 -2.75
    endloop
  endfacet
  facet normal 0 0 -1
    outer loop
      vertex 19.121 0.141 -2.75
      vertex 19.602 0.779 -2.75
      vertex 19.593 0.476 -2.75
    endloop
  endfacet
  facet normal 0 0 -1
    outer loop
      vertex 19.121 0.141 -2.75
      vertex 19.593 0.476 -2.75
      vertex 19.41 0.233 -2.75
    endloop
  endfacet
  facet normal 0 0 -1
    outer loop
      vertex 17.782 35.353 -2.75
      vertex 17.63 48.618 -2.75
      vertex 17.782 47.853 -2.75
    endloop
  endfacet
  facet normal -1 0 0
    outer loop
      vertex 0.141 0.141 -2.75
      vertex 0.141 0.141 2.75
      vertex 0.141 49.853 -2.75
    endloop
  endfacet
  facet normal -1 0 0
    outer loop
      vertex 0.141 49.853 -2.75
      vertex 0.141 0.141 2.75
      vertex 0.141 49.853 2.75
    endloop
  endfacet
  facet normal 0 0 1
    outer loop
      vertex 15.032 2.103 2.75
      vertex 0.141 0.141 2.75
      vertex 19.121 0.141 2.75
    endloop
  endfacet
  facet normal 0 0 1
    outer loop
      vertex 15.174 4.258 2.75
      vertex 15.032 4.032 2.75
      vertex 15.438 4.228 2.75
    endloop
  endfacet
  facet normal 0 0 1
    outer loop
      vertex 19.602 0.779 2.75
      vertex 19.434 1.032 2.75
      vertex 19.593 0.476 2.75
    endloop
  endfacet
  facet normal 0 0 1
    outer loop
      vertex 4.02 2.603 2.75
      vertex 4.136 2.946 2.75
      vertex 0.141 49.853 2.75
    endloop
  endfacet
  facet normal 0 0 1
    outer loop
      vertex 13.171 3.181 2.75
      vertex 13.489 3.395 2.75
      vertex 12.782 3.103 2.75
    endloop
  endfacet
  facet normal 0 0 1
    outer loop
      vertex 15.438 4.228 2.75
      vertex 15.032 4.032 2.75
      vertex 19.121 0.141 2.75
    endloop
  endfacet
  facet normal 0 0 1
    outer loop
      vertex 4.5 3.103 2.75
      vertex 13.704 3.713 2.75
      vertex 13.782 4.103 2.75
    endloop
  endfacet
  facet normal 0 0 1
    outer loop
      vertex 15.032 4.032 2.75
      vertex 15.032 2.103 2.75
      vertex 19.121 0.141 2.75
    endloop
  endfacet
  facet normal 0 0 1
    outer loop
      vertex 13.782 4.103 2.75
      vertex 13.782 37.603 2.75
      vertex 0.141 49.853 2.75
    endloop
  endfacet
  facet normal 0 0 1
    outer loop
      vertex 4.143 2.259 2.75
      vertex 0.141 0.141 2.75
      vertex 4.5 2.103 2.75
    endloop
  endfacet
  facet normal 0 0 1
    outer loop
      vertex 4.02 2.603 2.75
      vertex 0.141 0.141 2.75
      vertex 4.143 2.259 2.75
    endloop
  endfacet
  facet normal 0 0 1
    outer loop
      vertex 4.136 2.946 2.75
      vertex 4.5 3.103 2.75
      vertex 0.141 49.853 2.75
    endloop
  endfacet
  facet normal 0 0 1
    outer loop
      vertex 0.141 49.853 2.75
      vertex 0.141 0.141 2.75
      vertex 4.02 2.603 2.75
    endloop
  endfacet
  facet normal 0 0 1
    outer loop
      vertex 4.5 3.103 2.75
      vertex 12.782 3.103 2.75
      vertex 13.489 3.395 2.75
    endloop
  endfacet
  facet normal 0 0 1
    outer loop
      vertex 4.5 3.103 2.75
      vertex 13.489 3.395 2.75
      vertex 13.704 3.713 2.75
    endloop
  endfacet
  facet normal 0 0 1
    outer loop
      vertex 13.782 4.103 2.75
      vertex 0.141 49.853 2.75
      vertex 4.5 3.103 2.75
    endloop
  endfacet
  facet normal 0 0 1
    outer loop
      vertex 14.782 37.603 2.75
      vertex 0.141 49.853 2.75
      vertex 13.782 37.603 2.75
    endloop
  endfacet
  facet normal 0 0 1
    outer loop
      vertex 17.782 35.353 2.75
      vertex 0.141 49.853 2.75
      vertex 14.782 37.603 2.75
    endloop
  endfacet
  facet normal 0 0 1
    outer loop
      vertex 16.192 35.007 2.75
      vertex 14.782 37.603 2.75
      vertex 15.823 35.422 2.75
    endloop
  endfacet
  facet normal 0 0 1
    outer loop
      vertex 16.726 34.853 2.75
      vertex 14.782 37.603 2.75
      vertex 16.192 35.007 2.75
    endloop
  endfacet
  facet normal 0 0 1
    outer loop
      vertex 17.282 34.853 2.75
      vertex 14.782 37.603 2.75
      vertex 16.726 34.853 2.75
    endloop
  endfacet
  facet normal 0 0 1
    outer loop
      vertex 17.636 34.999 2.75
      vertex 14.782 37.603 2.75
      vertex 17.282 34.853 2.75
    endloop
  endfacet
  facet normal 0 0 1
    outer loop
      vertex 17.782 35.353 2.75
      vertex 14.782 37.603 2.75
      vertex 17.636 34.999 2.75
    endloop
  endfacet
  facet normal 0 0 1
    outer loop
      vertex 17.782 47.853 2.75
      vertex 0.141 49.853 2.75
      vertex 17.782 35.353 2.75
    endloop
  endfacet
  facet normal 0 0 1
    outer loop
      vertex 17.63 48.618 2.75
      vertex 0.141 49.853 2.75
      vertex 17.782 47.853 2.75
    endloop
  endfacet
  facet normal 0 0 1
    outer loop
      vertex 17.196 49.267 2.75
      vertex 0.141 49.853 2.75
      vertex 17.63 48.618 2.75
    endloop
  endfacet
  facet normal 0 0 1
    outer loop
      vertex 16.548 49.7 2.75
      vertex 0.141 49.853 2.75
      vertex 17.196 49.267 2.75
    endloop
  endfacet
  facet normal 0 0 1
    outer loop
      vertex 15.782 49.853 2.75
      vertex 0.141 49.853 2.75
      vertex 16.548 49.7 2.75
    endloop
  endfacet
  facet normal 0 0 1
    outer loop
      vertex 19.434 1.032 2.75
      vertex 19.41 0.233 2.75
      vertex 19.593 0.476 2.75
    endloop
  endfacet
  facet normal 0 0 1
    outer loop
      vertex 19.434 1.032 2.75
      vertex 19.121 0.141 2.75
      vertex 19.41 0.233 2.75
    endloop
  endfacet
  facet normal 0 0 1
    outer loop
      vertex 19.434 1.032 2.75
      vertex 15.438 4.228 2.75
      vertex 19.121 0.141 2.75
    endloop
  endfacet
  facet normal 0 0 1
    outer loop
      vertex 15.032 2.103 2.75
      vertex 4.5 2.103 2.75
      vertex 0.141 0.141 2.75
    endloop
  endfacet
  facet normal 0.30334 -0.952882 0
    outer loop
      vertex 19.121 0.141 2.75
      vertex 19.121 0.141 -2.75
      vertex 19.41 0.233 -2.75
    endloop
  endfacet
  facet normal 0.30334 -0.952882 0
    outer loop
      vertex 19.41 0.233 2.75
      vertex 19.121 0.141 2.75
      vertex 19.41 0.233 -2.75
    endloop
  endfacet
  facet normal 0.980785 2.17778e-016 0.195091
    outer loop
      vertex 7.4 0.141 -3.55271e-016
      vertex 7.52179 0.141 -0.612293
      vertex 7.52179 2.103 -0.612293
    endloop
  endfacet
  facet normal 0.980785 2.17778e-016 0.195091
    outer loop
      vertex 7.4 2.103 -3.55271e-016
      vertex 7.4 0.141 -3.55271e-016
      vertex 7.52179 2.103 -0.612293
    endloop
  endfacet
  facet normal 0.980785 2.17778e-016 -0.195091
    outer loop
      vertex 7.52179 2.103 0.612293
      vertex 7.52179 0.141 0.612293
      vertex 7.4 0.141 -3.55271e-016
    endloop
  endfacet
  facet normal 0.980785 2.17778e-016 -0.195091
    outer loop
      vertex 7.4 2.103 -3.55271e-016
      vertex 7.52179 2.103 0.612293
      vertex 7.4 0.141 -3.55271e-016
    endloop
  endfacet
  facet normal 0.83147 1.84623e-016 0.555569
    outer loop
      vertex 7.52179 0.141 -0.612293
      vertex 7.86863 0.141 -1.13137
      vertex 7.86863 2.103 -1.13137
    endloop
  endfacet
  facet normal 0.83147 1.84623e-016 0.555569
    outer loop
      vertex 7.52179 2.103 -0.612293
      vertex 7.52179 0.141 -0.612293
      vertex 7.86863 2.103 -1.13137
    endloop
  endfacet
  facet normal 0.555569 1.23361e-016 0.83147
    outer loop
      vertex 7.86863 0.141 -1.13137
      vertex 8.38771 0.141 -1.47821
      vertex 8.38771 2.103 -1.47821
    endloop
  endfacet
  facet normal 0.555569 1.23361e-016 0.83147
    outer loop
      vertex 7.86863 2.103 -1.13137
      vertex 7.86863 0.141 -1.13137
      vertex 8.38771 2.103 -1.47821
    endloop
  endfacet
  facet normal 0.195091 4.33189e-017 0.980785
    outer loop
      vertex 8.38771 0.141 -1.47821
      vertex 9 0.141 -1.6
      vertex 9 2.103 -1.6
    endloop
  endfacet
  facet normal 0.195091 4.33189e-017 0.980785
    outer loop
      vertex 8.38771 2.103 -1.47821
      vertex 8.38771 0.141 -1.47821
      vertex 9 2.103 -1.6
    endloop
  endfacet
  facet normal -0.195091 -4.33189e-017 0.980785
    outer loop
      vertex 9 0.141 -1.6
      vertex 9.61229 0.141 -1.47821
      vertex 9.61229 2.103 -1.47821
    endloop
  endfacet
  facet normal -0.195091 -4.33189e-017 0.980785
    outer loop
      vertex 9 2.103 -1.6
      vertex 9 0.141 -1.6
      vertex 9.61229 2.103 -1.47821
    endloop
  endfacet
  facet normal -0.555569 -1.23361e-016 0.83147
    outer loop
      vertex 9.61229 0.141 -1.47821
      vertex 10.1314 0.141 -1.13137
      vertex 10.1314 2.103 -1.13137
    endloop
  endfacet
  facet normal -0.555569 -1.23361e-016 0.83147
    outer loop
      vertex 9.61229 2.103 -1.47821
      vertex 9.61229 0.141 -1.47821
      vertex 10.1314 2.103 -1.13137
    endloop
  endfacet
  facet normal -0.83147 -1.84623e-016 0.555569
    outer loop
      vertex 10.4782 0.141 -0.612293
      vertex 10.4782 2.103 -0.612293
      vertex 10.1314 0.141 -1.13137
    endloop
  endfacet
  facet normal -0.83147 -1.84623e-016 0.555569
    outer loop
      vertex 10.1314 0.141 -1.13137
      vertex 10.4782 2.103 -0.612293
      vertex 10.1314 2.103 -1.13137
    endloop
  endfacet
  facet normal -0.980785 -2.17778e-016 0.195091
    outer loop
      vertex 10.6 0.141 3.55271e-016
      vertex 10.6 2.103 3.55271e-016
      vertex 10.4782 0.141 -0.612293
    endloop
  endfacet
  facet normal -0.980785 -2.17778e-016 0.195091
    outer loop
      vertex 10.4782 0.141 -0.612293
      vertex 10.6 2.103 3.55271e-016
      vertex 10.4782 2.103 -0.612293
    endloop
  endfacet
  facet normal -0.980785 -2.17778e-016 -0.195091
    outer loop
      vertex 10.6 0.141 3.55271e-016
      vertex 10.4782 0.141 0.612293
      vertex 10.6 2.103 3.55271e-016
    endloop
  endfacet
  facet normal -0.980785 -2.17778e-016 -0.195091
    outer loop
      vertex 10.6 2.103 3.55271e-016
      vertex 10.4782 0.141 0.612293
      vertex 10.4782 2.103 0.612293
    endloop
  endfacet
  facet normal -0.83147 -1.84623e-016 -0.555569
    outer loop
      vertex 10.4782 0.141 0.612293
      vertex 10.1314 0.141 1.13137
      vertex 10.4782 2.103 0.612293
    endloop
  endfacet
  facet normal -0.83147 -1.84623e-016 -0.555569
    outer loop
      vertex 10.4782 2.103 0.612293
      vertex 10.1314 0.141 1.13137
      vertex 10.1314 2.103 1.13137
    endloop
  endfacet
  facet normal -0.555569 -1.23361e-016 -0.83147
    outer loop
      vertex 10.1314 0.141 1.13137
      vertex 9.61229 0.141 1.47821
      vertex 10.1314 2.103 1.13137
    endloop
  endfacet
  facet normal -0.555569 -1.23361e-016 -0.83147
    outer loop
      vertex 10.1314 2.103 1.13137
      vertex 9.61229 0.141 1.47821
      vertex 9.61229 2.103 1.47821
    endloop
  endfacet
  facet normal -0.195091 -4.33189e-017 -0.980785
    outer loop
      vertex 9.61229 0.141 1.47821
      vertex 9 0.141 1.6
      vertex 9.61229 2.103 1.47821
    endloop
  endfacet
  facet normal -0.195091 -4.33189e-017 -0.980785
    outer loop
      vertex 9.61229 2.103 1.47821
      vertex 9 0.141 1.6
      vertex 9 2.103 1.6
    endloop
  endfacet
  facet normal 0.195091 4.33189e-017 -0.980785
    outer loop
      vertex 9 0.141 1.6
      vertex 8.38771 0.141 1.47821
      vertex 9 2.103 1.6
    endloop
  endfacet
  facet normal 0.195091 4.33189e-017 -0.980785
    outer loop
      vertex 9 2.103 1.6
      vertex 8.38771 0.141 1.47821
      vertex 8.38771 2.103 1.47821
    endloop
  endfacet
  facet normal 0.555569 1.23361e-016 -0.83147
    outer loop
      vertex 8.38771 0.141 1.47821
      vertex 7.86863 0.141 1.13137
      vertex 8.38771 2.103 1.47821
    endloop
  endfacet
  facet normal 0.555569 1.23361e-016 -0.83147
    outer loop
      vertex 8.38771 2.103 1.47821
      vertex 7.86863 0.141 1.13137
      vertex 7.86863 2.103 1.13137
    endloop
  endfacet
  facet normal 0.83147 1.84623e-016 -0.555569
    outer loop
      vertex 7.86863 2.103 1.13137
      vertex 7.86863 0.141 1.13137
      vertex 7.52179 0.141 0.612293
    endloop
  endfacet
  facet normal 0.83147 1.84623e-016 -0.555569
    outer loop
      vertex 7.52179 2.103 0.612293
      vertex 7.86863 2.103 1.13137
      vertex 7.52179 0.141 0.612293
    endloop
  endfacet
  facet normal 0.798815 -0.601577 0
    outer loop
      vertex 19.41 0.233 2.75
      vertex 19.41 0.233 -2.75
      vertex 19.593 0.476 -2.75
    endloop
  endfacet
  facet normal 0.798815 -0.601577 0
    outer loop
      vertex 19.593 0.476 2.75
      vertex 19.41 0.233 2.75
      vertex 19.593 0.476 -2.75
    endloop
  endfacet
  facet normal 0.999559 -0.0296899 0
    outer loop
      vertex 19.593 0.476 2.75
      vertex 19.593 0.476 -2.75
      vertex 19.602 0.779 -2.75
    endloop
  endfacet
  facet normal 0.999559 -0.0296899 0
    outer loop
      vertex 19.602 0.779 2.75
      vertex 19.593 0.476 2.75
      vertex 19.602 0.779 -2.75
    endloop
  endfacet
  facet normal 0.833062 0.55318 0
    outer loop
      vertex 19.602 0.779 -2.75
      vertex 19.434 1.032 -2.75
      vertex 19.434 1.032 2.75
    endloop
  endfacet
  facet normal 0.833062 0.55318 0
    outer loop
      vertex 19.602 0.779 2.75
      vertex 19.602 0.779 -2.75
      vertex 19.434 1.032 2.75
    endloop
  endfacet
  facet normal 0.6246 0.780945 0
    outer loop
      vertex 15.438 4.228 -2.75
      vertex 15.438 4.228 2.75
      vertex 19.434 1.032 -2.75
    endloop
  endfacet
  facet normal 0.6246 0.780945 0
    outer loop
      vertex 19.434 1.032 -2.75
      vertex 15.438 4.228 2.75
      vertex 19.434 1.032 2.75
    endloop
  endfacet
  facet normal 0.11291 0.993605 0
    outer loop
      vertex 15.174 4.258 -2.75
      vertex 15.174 4.258 2.75
      vertex 15.438 4.228 -2.75
    endloop
  endfacet
  facet normal 0.11291 0.993605 0
    outer loop
      vertex 15.438 4.228 -2.75
      vertex 15.174 4.258 2.75
      vertex 15.438 4.228 2.75
    endloop
  endfacet
  facet normal -0.846733 0.532018 0
    outer loop
      vertex 15.032 4.032 -2.75
      vertex 15.032 4.032 2.75
      vertex 15.174 4.258 -2.75
    endloop
  endfacet
  facet normal -0.846733 0.532018 0
    outer loop
      vertex 15.174 4.258 -2.75
      vertex 15.032 4.032 2.75
      vertex 15.174 4.258 2.75
    endloop
  endfacet
  facet normal -1 0 0
    outer loop
      vertex 15.032 2.103 -2.75
      vertex 15.032 2.103 2.75
      vertex 15.032 4.032 -2.75
    endloop
  endfacet
  facet normal -1 0 0
    outer loop
      vertex 15.032 4.032 -2.75
      vertex 15.032 2.103 2.75
      vertex 15.032 4.032 2.75
    endloop
  endfacet
  facet normal 0 1 0
    outer loop
      vertex 9.61229 2.103 1.47821
      vertex 4.5 2.103 2.75
      vertex 15.032 2.103 2.75
    endloop
  endfacet
  facet normal 0 1 0
    outer loop
      vertex 4.5 2.103 -2.75
      vertex 4.5 2.103 2.75
      vertex 7.52179 2.103 0.612293
    endloop
  endfacet
  facet normal 0 1 0
    outer loop
      vertex 4.5 2.103 -2.75
      vertex 7.52179 2.103 0.612293
      vertex 7.4 2.103 -3.55271e-016
    endloop
  endfacet
  facet normal 0 1 0
    outer loop
      vertex 4.5 2.103 -2.75
      vertex 7.4 2.103 -3.55271e-016
      vertex 7.52179 2.103 -0.612293
    endloop
  endfacet
  facet normal 0 1 0
    outer loop
      vertex 4.5 2.103 -2.75
      vertex 7.52179 2.103 -0.612293
      vertex 7.86863 2.103 -1.13137
    endloop
  endfacet
  facet normal 0 1 0
    outer loop
      vertex 4.5 2.103 -2.75
      vertex 7.86863 2.103 -1.13137
      vertex 8.38771 2.103 -1.47821
    endloop
  endfacet
  facet normal 0 1 0
    outer loop
      vertex 4.5 2.103 -2.75
      vertex 8.38771 2.103 -1.47821
      vertex 9 2.103 -1.6
    endloop
  endfacet
  facet normal 0 1 0
    outer loop
      vertex 4.5 2.103 -2.75
      vertex 9 2.103 -1.6
      vertex 15.032 2.103 -2.75
    endloop
  endfacet
  facet normal 0 1 0
    outer loop
      vertex 10.1314 2.103 -1.13137
      vertex 15.032 2.103 -2.75
      vertex 9.61229 2.103 -1.47821
    endloop
  endfacet
  facet normal 0 1 0
    outer loop
      vertex 10.4782 2.103 -0.612293
      vertex 15.032 2.103 -2.75
      vertex 10.1314 2.103 -1.13137
    endloop
  endfacet
  facet normal 0 1 0
    outer loop
      vertex 9.61229 2.103 -1.47821
      vertex 15.032 2.103 -2.75
      vertex 9 2.103 -1.6
    endloop
  endfacet
  facet normal 0 1 0
    outer loop
      vertex 10.6 2.103 3.55271e-016
      vertex 15.032 2.103 -2.75
      vertex 10.4782 2.103 -0.612293
    endloop
  endfacet
  facet normal 0 1 0
    outer loop
      vertex 15.032 2.103 -2.75
      vertex 10.6 2.103 3.55271e-016
      vertex 15.032 2.103 2.75
    endloop
  endfacet
  facet normal 0 1 0
    outer loop
      vertex 10.6 2.103 3.55271e-016
      vertex 10.4782 2.103 0.612293
      vertex 15.032 2.103 2.75
    endloop
  endfacet
  facet normal 0 1 0
    outer loop
      vertex 7.86863 2.103 1.13137
      vertex 4.5 2.103 2.75
      vertex 8.38771 2.103 1.47821
    endloop
  endfacet
  facet normal 0 1 0
    outer loop
      vertex 10.4782 2.103 0.612293
      vertex 10.1314 2.103 1.13137
      vertex 15.032 2.103 2.75
    endloop
  endfacet
  facet normal 0 1 0
    outer loop
      vertex 9 2.103 1.6
      vertex 4.5 2.103 2.75
      vertex 9.61229 2.103 1.47821
    endloop
  endfacet
  facet normal 0 1 0
    outer loop
      vertex 10.1314 2.103 1.13137
      vertex 9.61229 2.103 1.47821
      vertex 15.032 2.103 2.75
    endloop
  endfacet
  facet normal 0 1 0
    outer loop
      vertex 8.38771 2.103 1.47821
      vertex 4.5 2.103 2.75
      vertex 9 2.103 1.6
    endloop
  endfacet
  facet normal 0 1 0
    outer loop
      vertex 7.52179 2.103 0.612293
      vertex 4.5 2.103 2.75
      vertex 7.86863 2.103 1.13137
    endloop
  endfacet
  facet normal 0.400415 0.916334 0
    outer loop
      vertex 4.143 2.259 -2.75
      vertex 4.143 2.259 2.75
      vertex 4.5 2.103 -2.75
    endloop
  endfacet
  facet normal 0.400415 0.916334 0
    outer loop
      vertex 4.5 2.103 -2.75
      vertex 4.143 2.259 2.75
      vertex 4.5 2.103 2.75
    endloop
  endfacet
  facet normal 0.941618 0.336683 0
    outer loop
      vertex 4.143 2.259 -2.75
      vertex 4.02 2.603 -2.75
      vertex 4.02 2.603 2.75
    endloop
  endfacet
  facet normal 0.941618 0.336683 0
    outer loop
      vertex 4.143 2.259 2.75
      vertex 4.143 2.259 -2.75
      vertex 4.02 2.603 2.75
    endloop
  endfacet
  facet normal 0.947293 -0.320367 0
    outer loop
      vertex 4.02 2.603 2.75
      vertex 4.02 2.603 -2.75
      vertex 4.136 2.946 -2.75
    endloop
  endfacet
  facet normal 0.947293 -0.320367 0
    outer loop
      vertex 4.136 2.946 2.75
      vertex 4.02 2.603 2.75
      vertex 4.136 2.946 -2.75
    endloop
  endfacet
  facet normal 0.396049 -0.918229 0
    outer loop
      vertex 4.136 2.946 2.75
      vertex 4.136 2.946 -2.75
      vertex 4.5 3.103 -2.75
    endloop
  endfacet
  facet normal 0.396049 -0.918229 0
    outer loop
      vertex 4.5 3.103 2.75
      vertex 4.136 2.946 2.75
      vertex 4.5 3.103 -2.75
    endloop
  endfacet
  facet normal 0 -1 0
    outer loop
      vertex 9.55489 3.103 -1.33962
      vertex 4.5 3.103 -2.75
      vertex 12.782 3.103 -2.75
    endloop
  endfacet
  facet normal 0 -1 0
    outer loop
      vertex 4.5 3.103 2.75
      vertex 4.5 3.103 -2.75
      vertex 7.55 3.103 -3.21965e-016
    endloop
  endfacet
  facet normal 0 -1 0
    outer loop
      vertex 9 3.103 1.45
      vertex 9.55489 3.103 1.33962
      vertex 12.782 3.103 2.75
    endloop
  endfacet
  facet normal 0 -1 0
    outer loop
      vertex 4.5 3.103 2.75
      vertex 7.55 3.103 -3.21965e-016
      vertex 7.66038 3.103 0.554891
    endloop
  endfacet
  facet normal 0 -1 0
    outer loop
      vertex 8.44511 3.103 1.33962
      vertex 4.5 3.103 2.75
      vertex 7.9747 3.103 1.0253
    endloop
  endfacet
  facet normal 0 -1 0
    outer loop
      vertex 12.782 3.103 2.75
      vertex 4.5 3.103 2.75
      vertex 8.44511 3.103 1.33962
    endloop
  endfacet
  facet normal 0 -1 0
    outer loop
      vertex 10.3396 3.103 0.554891
      vertex 10.45 3.103 3.21965e-016
      vertex 12.782 3.103 -2.75
    endloop
  endfacet
  facet normal 0 -1 0
    outer loop
      vertex 12.782 3.103 2.75
      vertex 8.44511 3.103 1.33962
      vertex 9 3.103 1.45
    endloop
  endfacet
  facet normal 0 -1 0
    outer loop
      vertex 12.782 3.103 2.75
      vertex 10.0253 3.103 1.02531
      vertex 12.782 3.103 -2.75
    endloop
  endfacet
  facet normal 0 -1 0
    outer loop
      vertex 12.782 3.103 2.75
      vertex 9.55489 3.103 1.33962
      vertex 10.0253 3.103 1.02531
    endloop
  endfacet
  facet normal 0 -1 0
    outer loop
      vertex 10.0253 3.103 1.02531
      vertex 10.3396 3.103 0.554891
      vertex 12.782 3.103 -2.75
    endloop
  endfacet
  facet normal 0 -1 0
    outer loop
      vertex 10.45 3.103 3.21965e-016
      vertex 10.3396 3.103 -0.554891
      vertex 12.782 3.103 -2.75
    endloop
  endfacet
  facet normal 0 -1 0
    outer loop
      vertex 9 3.103 -1.45
      vertex 4.5 3.103 -2.75
      vertex 9.55489 3.103 -1.33962
    endloop
  endfacet
  facet normal 0 -1 0
    outer loop
      vertex 8.44511 3.103 -1.33962
      vertex 4.5 3.103 -2.75
      vertex 9 3.103 -1.45
    endloop
  endfacet
  facet normal 0 -1 0
    outer loop
      vertex 7.9747 3.103 -1.02531
      vertex 4.5 3.103 -2.75
      vertex 8.44511 3.103 -1.33962
    endloop
  endfacet
  facet normal 0 -1 0
    outer loop
      vertex 7.66038 3.103 -0.554891
      vertex 4.5 3.103 -2.75
      vertex 7.9747 3.103 -1.02531
    endloop
  endfacet
  facet normal 0 -1 0
    outer loop
      vertex 7.55 3.103 -3.21965e-016
      vertex 4.5 3.103 -2.75
      vertex 7.66038 3.103 -0.554891
    endloop
  endfacet
  facet normal 0 -1 0
    outer loop
      vertex 10.0253 3.103 -1.0253
      vertex 9.55489 3.103 -1.33962
      vertex 12.782 3.103 -2.75
    endloop
  endfacet
  facet normal 0 -1 0
    outer loop
      vertex 7.66038 3.103 0.554891
      vertex 7.9747 3.103 1.0253
      vertex 4.5 3.103 2.75
    endloop
  endfacet
  facet normal 0 -1 0
    outer loop
      vertex 10.3396 3.103 -0.554891
      vertex 10.0253 3.103 -1.0253
      vertex 12.782 3.103 -2.75
    endloop
  endfacet
  facet normal 0.196601 -0.980484 0
    outer loop
      vertex 12.782 3.103 2.75
      vertex 12.782 3.103 -2.75
      vertex 13.171 3.181 -2.75
    endloop
  endfacet
  facet normal 0.196601 -0.980484 0
    outer loop
      vertex 13.171 3.181 2.75
      vertex 12.782 3.103 2.75
      vertex 13.171 3.181 -2.75
    endloop
  endfacet
  facet normal 0.558307 -0.829634 0
    outer loop
      vertex 13.171 3.181 2.75
      vertex 13.171 3.181 -2.75
      vertex 13.489 3.395 -2.75
    endloop
  endfacet
  facet normal 0.558307 -0.829634 0
    outer loop
      vertex 13.489 3.395 2.75
      vertex 13.171 3.181 2.75
      vertex 13.489 3.395 -2.75
    endloop
  endfacet
  facet normal 0.828426 -0.560099 0
    outer loop
      vertex 13.489 3.395 2.75
      vertex 13.489 3.395 -2.75
      vertex 13.704 3.713 -2.75
    endloop
  endfacet
  facet normal 0.828426 -0.560099 0
    outer loop
      vertex 13.704 3.713 2.75
      vertex 13.489 3.395 2.75
      vertex 13.704 3.713 -2.75
    endloop
  endfacet
  facet normal 0.980581 -0.196116 0
    outer loop
      vertex 13.704 3.713 2.75
      vertex 13.704 3.713 -2.75
      vertex 13.782 4.103 -2.75
    endloop
  endfacet
  facet normal 0.980581 -0.196116 0
    outer loop
      vertex 13.782 4.103 2.75
      vertex 13.704 3.713 2.75
      vertex 13.782 4.103 -2.75
    endloop
  endfacet
  facet normal 1 0 0
    outer loop
      vertex 13.782 4.103 2.75
      vertex 13.782 4.103 -2.75
      vertex 13.782 37.603 -2.75
    endloop
  endfacet
  facet normal 1 0 0
    outer loop
      vertex 13.782 37.603 2.75
      vertex 13.782 4.103 2.75
      vertex 13.782 37.603 -2.75
    endloop
  endfacet
  facet normal 0 -1 0
    outer loop
      vertex 13.782 37.603 2.75
      vertex 13.782 37.603 -2.75
      vertex 14.782 37.603 -2.75
    endloop
  endfacet
  facet normal 0 -1 0
    outer loop
      vertex 14.782 37.603 2.75
      vertex 13.782 37.603 2.75
      vertex 14.782 37.603 -2.75
    endloop
  endfacet
  facet normal -0.90247 -0.430753 0
    outer loop
      vertex 14.782 37.603 -2.75
      vertex 15.823 35.422 -2.75
      vertex 14.782 37.603 2.75
    endloop
  endfacet
  facet normal -0.90247 -0.430753 0
    outer loop
      vertex 14.782 37.603 2.75
      vertex 15.823 35.422 -2.75
      vertex 15.823 35.422 2.75
    endloop
  endfacet
  facet normal -0.74731 -0.664476 0
    outer loop
      vertex 15.823 35.422 -2.75
      vertex 16.192 35.007 -2.75
      vertex 15.823 35.422 2.75
    endloop
  endfacet
  facet normal -0.74731 -0.664476 0
    outer loop
      vertex 15.823 35.422 2.75
      vertex 16.192 35.007 -2.75
      vertex 16.192 35.007 2.75
    endloop
  endfacet
  facet normal -0.277097 -0.960842 0
    outer loop
      vertex 16.192 35.007 2.75
      vertex 16.192 35.007 -2.75
      vertex 16.726 34.853 -2.75
    endloop
  endfacet
  facet normal -0.277097 -0.960842 0
    outer loop
      vertex 16.726 34.853 2.75
      vertex 16.192 35.007 2.75
      vertex 16.726 34.853 -2.75
    endloop
  endfacet
  facet normal 0 -1 0
    outer loop
      vertex 16.726 34.853 2.75
      vertex 16.726 34.853 -2.75
      vertex 17.282 34.853 -2.75
    endloop
  endfacet
  facet normal 0 -1 0
    outer loop
      vertex 17.282 34.853 2.75
      vertex 16.726 34.853 2.75
      vertex 17.282 34.853 -2.75
    endloop
  endfacet
  facet normal 0.381275 -0.924462 0
    outer loop
      vertex 17.282 34.853 2.75
      vertex 17.282 34.853 -2.75
      vertex 17.636 34.999 -2.75
    endloop
  endfacet
  facet normal 0.381275 -0.924462 0
    outer loop
      vertex 17.636 34.999 2.75
      vertex 17.282 34.853 2.75
      vertex 17.636 34.999 -2.75
    endloop
  endfacet
  facet normal 0.924462 -0.381275 0
    outer loop
      vertex 17.636 34.999 2.75
      vertex 17.636 34.999 -2.75
      vertex 17.782 35.353 -2.75
    endloop
  endfacet
  facet normal 0.924462 -0.381275 0
    outer loop
      vertex 17.782 35.353 2.75
      vertex 17.636 34.999 2.75
      vertex 17.782 35.353 -2.75
    endloop
  endfacet
  facet normal 1 0 0
    outer loop
      vertex 17.782 35.353 2.75
      vertex 17.782 35.353 -2.75
      vertex 17.782 47.853 -2.75
    endloop
  endfacet
  facet normal 1 0 0
    outer loop
      vertex 17.782 47.853 2.75
      vertex 17.782 35.353 2.75
      vertex 17.782 47.853 -2.75
    endloop
  endfacet
  facet normal 0.980826 0.194883 0
    outer loop
      vertex 17.782 47.853 -2.75
      vertex 17.63 48.618 -2.75
      vertex 17.63 48.618 2.75
    endloop
  endfacet
  facet normal 0.980826 0.194883 0
    outer loop
      vertex 17.782 47.853 2.75
      vertex 17.782 47.853 -2.75
      vertex 17.63 48.618 2.75
    endloop
  endfacet
  facet normal 0.831261 0.555882 0
    outer loop
      vertex 17.63 48.618 -2.75
      vertex 17.196 49.267 -2.75
      vertex 17.196 49.267 2.75
    endloop
  endfacet
  facet normal 0.831261 0.555882 0
    outer loop
      vertex 17.63 48.618 2.75
      vertex 17.63 48.618 -2.75
      vertex 17.196 49.267 2.75
    endloop
  endfacet
  facet normal 0.555588 0.831458 0
    outer loop
      vertex 16.548 49.7 -2.75
      vertex 16.548 49.7 2.75
      vertex 17.196 49.267 -2.75
    endloop
  endfacet
  facet normal 0.555588 0.831458 0
    outer loop
      vertex 17.196 49.267 -2.75
      vertex 16.548 49.7 2.75
      vertex 17.196 49.267 2.75
    endloop
  endfacet
  facet normal 0.19587 0.98063 0
    outer loop
      vertex 15.782 49.853 -2.75
      vertex 15.782 49.853 2.75
      vertex 16.548 49.7 -2.75
    endloop
  endfacet
  facet normal 0.19587 0.98063 0
    outer loop
      vertex 16.548 49.7 -2.75
      vertex 15.782 49.853 2.75
      vertex 16.548 49.7 2.75
    endloop
  endfacet
  facet normal 0 1 0
    outer loop
      vertex 0.141 49.853 -2.75
      vertex 0.141 49.853 2.75
      vertex 15.782 49.853 -2.75
    endloop
  endfacet
  facet normal 0 1 0
    outer loop
      vertex 15.782 49.853 -2.75
      vertex 0.141 49.853 2.75
      vertex 15.782 49.853 2.75
    endloop
  endfacet
  facet normal 0.980785 2.17778e-016 -0.195091
    outer loop
      vertex 7.66037 10 0.554891
      vertex 7.66038 3.103 0.554891
      vertex 7.55 3.103 -3.21965e-016
    endloop
  endfacet
  facet normal 0.980785 2.17778e-016 -0.195091
    outer loop
      vertex 7.55 10 -3.21965e-016
      vertex 7.66037 10 0.554891
      vertex 7.55 3.103 -3.21965e-016
    endloop
  endfacet
  facet normal 0.980785 2.17778e-016 0.195091
    outer loop
      vertex 7.55 3.103 -3.21965e-016
      vertex 7.66038 3.103 -0.554891
      vertex 7.66038 10 -0.554891
    endloop
  endfacet
  facet normal 0.980785 2.17778e-016 0.195091
    outer loop
      vertex 7.55 10 -3.21965e-016
      vertex 7.55 3.103 -3.21965e-016
      vertex 7.66038 10 -0.554891
    endloop
  endfacet
  facet normal 0.83147 1.84623e-016 0.55557
    outer loop
      vertex 7.66038 3.103 -0.554891
      vertex 7.9747 3.103 -1.02531
      vertex 7.97469 10 -1.02531
    endloop
  endfacet
  facet normal 0.83147 1.84623e-016 0.55557
    outer loop
      vertex 7.66038 10 -0.554891
      vertex 7.66038 3.103 -0.554891
      vertex 7.97469 10 -1.02531
    endloop
  endfacet
  facet normal 0.55557 1.23361e-016 0.83147
    outer loop
      vertex 7.9747 3.103 -1.02531
      vertex 8.44511 3.103 -1.33962
      vertex 8.44511 10 -1.33962
    endloop
  endfacet
  facet normal 0.55557 1.23361e-016 0.83147
    outer loop
      vertex 7.97469 10 -1.02531
      vertex 7.9747 3.103 -1.02531
      vertex 8.44511 10 -1.33962
    endloop
  endfacet
  facet normal 0.195091 4.33189e-017 0.980785
    outer loop
      vertex 8.44511 3.103 -1.33962
      vertex 9 3.103 -1.45
      vertex 9 10 -1.45
    endloop
  endfacet
  facet normal 0.195091 4.33189e-017 0.980785
    outer loop
      vertex 8.44511 10 -1.33962
      vertex 8.44511 3.103 -1.33962
      vertex 9 10 -1.45
    endloop
  endfacet
  facet normal -0.195091 -4.33189e-017 0.980785
    outer loop
      vertex 9 3.103 -1.45
      vertex 9.55489 3.103 -1.33962
      vertex 9.55489 10 -1.33962
    endloop
  endfacet
  facet normal -0.195091 -4.33189e-017 0.980785
    outer loop
      vertex 9 10 -1.45
      vertex 9 3.103 -1.45
      vertex 9.55489 10 -1.33962
    endloop
  endfacet
  facet normal -0.55557 -1.23361e-016 0.83147
    outer loop
      vertex 9.55489 3.103 -1.33962
      vertex 10.0253 3.103 -1.0253
      vertex 10.0253 10 -1.0253
    endloop
  endfacet
  facet normal -0.55557 -1.23361e-016 0.83147
    outer loop
      vertex 9.55489 10 -1.33962
      vertex 9.55489 3.103 -1.33962
      vertex 10.0253 10 -1.0253
    endloop
  endfacet
  facet normal -0.83147 -1.84623e-016 0.55557
    outer loop
      vertex 10.3396 3.103 -0.554891
      vertex 10.3396 10 -0.554891
      vertex 10.0253 3.103 -1.0253
    endloop
  endfacet
  facet normal -0.83147 -1.84623e-016 0.55557
    outer loop
      vertex 10.0253 3.103 -1.0253
      vertex 10.3396 10 -0.554891
      vertex 10.0253 10 -1.0253
    endloop
  endfacet
  facet normal -0.980785 -2.17778e-016 0.195091
    outer loop
      vertex 10.45 3.103 3.21965e-016
      vertex 10.45 10 3.21965e-016
      vertex 10.3396 3.103 -0.554891
    endloop
  endfacet
  facet normal -0.980785 -2.17778e-016 0.195091
    outer loop
      vertex 10.3396 3.103 -0.554891
      vertex 10.45 10 3.21965e-016
      vertex 10.3396 10 -0.554891
    endloop
  endfacet
  facet normal -0.980785 -2.17778e-016 -0.195091
    outer loop
      vertex 10.45 3.103 3.21965e-016
      vertex 10.3396 3.103 0.554891
      vertex 10.45 10 3.21965e-016
    endloop
  endfacet
  facet normal -0.980785 -2.17778e-016 -0.195091
    outer loop
      vertex 10.45 10 3.21965e-016
      vertex 10.3396 3.103 0.554891
      vertex 10.3396 10 0.554891
    endloop
  endfacet
  facet normal -0.83147 -1.84623e-016 -0.55557
    outer loop
      vertex 10.3396 3.103 0.554891
      vertex 10.0253 3.103 1.02531
      vertex 10.3396 10 0.554891
    endloop
  endfacet
  facet normal -0.83147 -1.84623e-016 -0.55557
    outer loop
      vertex 10.3396 10 0.554891
      vertex 10.0253 3.103 1.02531
      vertex 10.0253 10 1.02531
    endloop
  endfacet
  facet normal -0.55557 -1.23361e-016 -0.83147
    outer loop
      vertex 10.0253 3.103 1.02531
      vertex 9.55489 3.103 1.33962
      vertex 10.0253 10 1.02531
    endloop
  endfacet
  facet normal -0.55557 -1.23361e-016 -0.83147
    outer loop
      vertex 10.0253 10 1.02531
      vertex 9.55489 3.103 1.33962
      vertex 9.55489 10 1.33962
    endloop
  endfacet
  facet normal -0.195091 -4.33189e-017 -0.980785
    outer loop
      vertex 9.55489 3.103 1.33962
      vertex 9 3.103 1.45
      vertex 9.55489 10 1.33962
    endloop
  endfacet
  facet normal -0.195091 -4.33189e-017 -0.980785
    outer loop
      vertex 9.55489 10 1.33962
      vertex 9 3.103 1.45
      vertex 9 10 1.45
    endloop
  endfacet
  facet normal 0.195091 4.33189e-017 -0.980785
    outer loop
      vertex 9 3.103 1.45
      vertex 8.44511 3.103 1.33962
      vertex 9 10 1.45
    endloop
  endfacet
  facet normal 0.195091 4.33189e-017 -0.980785
    outer loop
      vertex 9 10 1.45
      vertex 8.44511 3.103 1.33962
      vertex 8.44511 10 1.33962
    endloop
  endfacet
  facet normal 0.55557 1.23361e-016 -0.83147
    outer loop
      vertex 8.44511 3.103 1.33962
      vertex 7.9747 3.103 1.0253
      vertex 8.44511 10 1.33962
    endloop
  endfacet
  facet normal 0.55557 1.23361e-016 -0.83147
    outer loop
      vertex 8.44511 10 1.33962
      vertex 7.9747 3.103 1.0253
      vertex 7.97469 10 1.0253
    endloop
  endfacet
  facet normal 0.83147 1.84623e-016 -0.55557
    outer loop
      vertex 7.97469 10 1.0253
      vertex 7.9747 3.103 1.0253
      vertex 7.66038 3.103 0.554891
    endloop
  endfacet
  facet normal 0.83147 1.84623e-016 -0.55557
    outer loop
      vertex 7.66037 10 0.554891
      vertex 7.97469 10 1.0253
      vertex 7.66038 3.103 0.554891
    endloop
  endfacet
  facet normal 2.22045e-016 -1 4.93038e-032
    outer loop
      vertex 7.66038 10 -0.554891
      vertex 7.97469 10 -1.02531
      vertex 8.44511 10 -1.33962
    endloop
  endfacet
  facet normal 2.22045e-016 -1 4.93038e-032
    outer loop
      vertex 9.55489 10 -1.33962
      vertex 7.66038 10 -0.554891
      vertex 9 10 -1.45
    endloop
  endfacet
  facet normal 2.22045e-016 -1 4.93038e-032
    outer loop
      vertex 9 10 -1.45
      vertex 7.66038 10 -0.554891
      vertex 8.44511 10 -1.33962
    endloop
  endfacet
  facet normal 2.22045e-016 -1 4.93038e-032
    outer loop
      vertex 10.0253 10 -1.0253
      vertex 7.66038 10 -0.554891
      vertex 9.55489 10 -1.33962
    endloop
  endfacet
  facet normal 2.22045e-016 -1 4.93038e-032
    outer loop
      vertex 10.3396 10 -0.554891
      vertex 7.66038 10 -0.554891
      vertex 10.0253 10 -1.0253
    endloop
  endfacet
  facet normal 2.22045e-016 -1 4.93038e-032
    outer loop
      vertex 10.45 10 3.21965e-016
      vertex 7.66038 10 -0.554891
      vertex 10.3396 10 -0.554891
    endloop
  endfacet
  facet normal 2.22045e-016 -1 4.93038e-032
    outer loop
      vertex 10.3396 10 0.554891
      vertex 7.66038 10 -0.554891
      vertex 10.45 10 3.21965e-016
    endloop
  endfacet
  facet normal 2.22045e-016 -1 4.93038e-032
    outer loop
      vertex 10.0253 10 1.02531
      vertex 7.66038 10 -0.554891
      vertex 10.3396 10 0.554891
    endloop
  endfacet
  facet normal 2.22045e-016 -1 4.93038e-032
    outer loop
      vertex 9.55489 10 1.33962
      vertex 7.66038 10 -0.554891
      vertex 10.0253 10 1.02531
    endloop
  endfacet
  facet normal 2.22045e-016 -1 4.93038e-032
    outer loop
      vertex 9 10 1.45
      vertex 7.66038 10 -0.554891
      vertex 9.55489 10 1.33962
    endloop
  endfacet
  facet normal 2.22045e-016 -1 4.93038e-032
    outer loop
      vertex 8.44511 10 1.33962
      vertex 7.66038 10 -0.554891
      vertex 9 10 1.45
    endloop
  endfacet
  facet normal 2.22045e-016 -1 4.93038e-032
    outer loop
      vertex 7.97469 10 1.0253
      vertex 7.66038 10 -0.554891
      vertex 8.44511 10 1.33962
    endloop
  endfacet
  facet normal 2.22045e-016 -1 4.93038e-032
    outer loop
      vertex 7.66037 10 0.554891
      vertex 7.66038 10 -0.554891
      vertex 7.97469 10 1.0253
    endloop
  endfacet
  facet normal 2.22045e-016 -1 4.93038e-032
    outer loop
      vertex 7.55 10 -3.21965e-016
      vertex 7.66038 10 -0.554891
      vertex 7.66037 10 0.554891
    endloop
  endfacet
endsolid OpenSCAD_Model
